<svg width="24.458mm" height="24.458mm" version="1.1" viewBox="0 0 24.458 24.458" xmlns="http://www.w3.org/2000/svg">
 <g transform="translate(-31.959 105.87)">
  <rect x="31.959" y="-105.87" width="24.458" height="24.458" fill="#f87e57"/>
  <g transform="matrix(.26458 0 0 .26458 33.333 -99.027)" fill="#fbc1b0" style="shape-inside:url(#rect2878);white-space:pre" aria-label="Loading">
   <path d="m2.42 25.85q-0.242 0-0.374-0.132-0.132-0.154-0.132-0.374v-14.388q0-0.22 0.132-0.352 0.132-0.154 0.374-0.154h1.166q0.22 0 0.352 0.154 0.154 0.132 0.154 0.352v12.98h7.304q0.242 0 0.374 0.154 0.154 0.132 0.154 0.374v0.88q0 0.22-0.154 0.374-0.132 0.132-0.374 0.132z"/>
   <path d="m18.458 26.07q-1.672 0-2.794-0.638t-1.716-1.76q-0.594-1.144-0.66-2.596-0.022-0.374-0.022-0.946 0-0.594 0.022-0.946 0.066-1.474 0.66-2.596 0.616-1.122 1.738-1.76t2.772-0.638 2.772 0.638 1.716 1.76q0.616 1.122 0.682 2.596 0.022 0.352 0.022 0.946 0 0.572-0.022 0.946-0.066 1.452-0.66 2.596-0.594 1.122-1.716 1.76t-2.794 0.638zm0-1.694q1.364 0 2.178-0.858 0.814-0.88 0.88-2.552 0.022-0.33 0.022-0.836t-0.022-0.836q-0.066-1.672-0.88-2.53-0.814-0.88-2.178-0.88t-2.2 0.88q-0.814 0.858-0.858 2.53-0.022 0.33-0.022 0.836t0.022 0.836q0.044 1.672 0.858 2.552 0.836 0.858 2.2 0.858z"/>
   <path d="m29.59 26.07q-1.1 0-2.002-0.44t-1.452-1.188-0.55-1.694q0-1.518 1.232-2.42t3.212-1.188l3.278-0.462v-0.638q0-1.056-0.616-1.65-0.594-0.594-1.958-0.594-0.968 0-1.584 0.396t-0.858 1.012q-0.132 0.33-0.462 0.33h-0.99q-0.242 0-0.374-0.132-0.11-0.154-0.11-0.352 0-0.33 0.242-0.814 0.264-0.484 0.792-0.946t1.342-0.77q0.836-0.33 2.024-0.33 1.32 0 2.222 0.352 0.902 0.33 1.408 0.902 0.528 0.572 0.748 1.298 0.242 0.726 0.242 1.474v7.128q0 0.22-0.154 0.374-0.132 0.132-0.352 0.132h-1.012q-0.242 0-0.374-0.132-0.132-0.154-0.132-0.374v-0.946q-0.286 0.396-0.77 0.792-0.484 0.374-1.21 0.638-0.726 0.242-1.782 0.242zm0.462-1.65q0.902 0 1.65-0.374 0.748-0.396 1.166-1.21 0.44-0.814 0.44-2.046v-0.616l-2.552 0.374q-1.562 0.22-2.354 0.748-0.792 0.506-0.792 1.298 0 0.616 0.352 1.034 0.374 0.396 0.924 0.594 0.572 0.198 1.166 0.198z"/>
   <path d="m42.724 26.07q-1.21 0-2.09-0.418-0.88-0.44-1.452-1.166-0.55-0.748-0.836-1.694-0.264-0.946-0.308-2.002-0.022-0.352-0.022-0.66t0.022-0.66q0.044-1.034 0.308-1.98 0.286-0.946 0.836-1.694 0.572-0.748 1.452-1.166 0.88-0.44 2.09-0.44 1.298 0 2.156 0.462t1.408 1.144v-5.06q0-0.22 0.132-0.352 0.154-0.154 0.374-0.154h1.056q0.22 0 0.352 0.154 0.154 0.132 0.154 0.352v14.608q0 0.22-0.154 0.374-0.132 0.132-0.352 0.132h-0.99q-0.242 0-0.374-0.132-0.132-0.154-0.132-0.374v-0.924q-0.55 0.704-1.43 1.188-0.88 0.462-2.2 0.462zm0.462-1.782q1.1 0 1.76-0.506t0.99-1.276q0.33-0.792 0.352-1.606 0.022-0.352 0.022-0.836 0-0.506-0.022-0.858-0.022-0.77-0.374-1.518-0.33-0.748-1.012-1.232-0.66-0.484-1.716-0.484-1.122 0-1.782 0.506-0.66 0.484-0.946 1.298-0.286 0.792-0.33 1.716-0.022 0.638 0 1.276 0.044 0.924 0.33 1.738 0.286 0.792 0.946 1.298 0.66 0.484 1.782 0.484z"/>
   <path d="m52.14 25.85q-0.22 0-0.374-0.132-0.132-0.154-0.132-0.374v-10.428q0-0.22 0.132-0.352 0.154-0.154 0.374-0.154h1.056q0.22 0 0.352 0.154 0.154 0.132 0.154 0.352v10.428q0 0.22-0.154 0.374-0.132 0.132-0.352 0.132zm-0.176-13.574q-0.22 0-0.374-0.132-0.132-0.154-0.132-0.374v-1.188q0-0.22 0.132-0.374 0.154-0.154 0.374-0.154h1.386q0.22 0 0.374 0.154t0.154 0.374v1.188q0 0.22-0.154 0.374-0.154 0.132-0.374 0.132z"/>
   <path d="m57.464 25.85q-0.22 0-0.374-0.132-0.132-0.154-0.132-0.374v-10.428q0-0.22 0.132-0.352 0.154-0.154 0.374-0.154h1.034q0.22 0 0.352 0.154 0.154 0.132 0.154 0.352v0.968q0.572-0.748 1.43-1.21 0.88-0.484 2.244-0.484 1.43 0 2.42 0.638 1.012 0.616 1.518 1.738 0.528 1.1 0.528 2.574v6.204q0 0.22-0.154 0.374-0.132 0.132-0.352 0.132h-1.1q-0.22 0-0.374-0.132-0.132-0.154-0.132-0.374v-6.094q0-1.54-0.748-2.398-0.748-0.88-2.2-0.88-1.364 0-2.2 0.88-0.814 0.858-0.814 2.398v6.094q0 0.22-0.154 0.374-0.132 0.132-0.352 0.132z"/>
   <path d="m74.976 30.69q-1.496 0-2.464-0.396-0.946-0.396-1.496-0.968-0.528-0.55-0.77-1.122-0.22-0.55-0.242-0.88-0.022-0.22 0.132-0.374 0.176-0.154 0.374-0.154h1.056q0.198 0 0.33 0.088t0.22 0.374q0.132 0.33 0.396 0.726 0.264 0.418 0.814 0.704 0.55 0.308 1.54 0.308 1.034 0 1.738-0.286t1.056-0.968q0.374-0.682 0.374-1.892v-1.496q-0.528 0.682-1.386 1.144-0.858 0.44-2.156 0.44-1.232 0-2.112-0.418-0.88-0.44-1.452-1.166-0.55-0.748-0.836-1.694-0.264-0.946-0.308-1.98-0.022-0.616 0-1.21 0.044-1.034 0.308-1.98 0.286-0.946 0.836-1.694 0.572-0.748 1.452-1.166 0.88-0.44 2.112-0.44 1.32 0 2.178 0.484 0.88 0.484 1.43 1.21v-0.946q0-0.22 0.132-0.374 0.154-0.154 0.374-0.154h1.012q0.22 0 0.374 0.154t0.154 0.374v10.67q0 1.474-0.506 2.618-0.484 1.144-1.628 1.804-1.122 0.66-3.036 0.66zm-0.044-6.512q1.1 0 1.76-0.506 0.682-0.506 0.99-1.276 0.33-0.77 0.352-1.562 0.022-0.308 0.022-0.748 0-0.462-0.022-0.77-0.022-0.792-0.352-1.562-0.308-0.77-0.99-1.276-0.66-0.506-1.76-0.506t-1.76 0.506q-0.66 0.484-0.946 1.298-0.286 0.792-0.33 1.716-0.022 0.572 0 1.166 0.044 0.924 0.33 1.738 0.286 0.792 0.946 1.298 0.66 0.484 1.76 0.484z"/>
  </g>
 </g>
</svg>
