<svg width="29.675mm" height="5.9266mm" version="1.1" viewBox="0 0 29.675 5.9266" xmlns="http://www.w3.org/2000/svg">
 <g transform="matrix(.26458 0 0 .26458 -.42333 5.9266)" stroke-width="1.0016" style="shape-inside:url(#rect1706);white-space:pre" aria-label="lestudio">
  <path d="m5.952-4.224h6.336c0.352 0 0.512 0.192 0.512 0.512v3.2c0 0.352-0.16 0.512-0.512 0.512h-10.176c-0.32 0-0.512-0.16-0.512-0.512v-21.376c0-0.32 0.192-0.512 0.512-0.512h3.328c0.352 0 0.512 0.192 0.512 0.512z" fill="#f74c18"/>
  <path d="m28.448-21.888c0-0.32-0.128-0.512-0.512-0.512h-11.776c-0.288 0-0.48 0.192-0.48 0.512v21.376c0 0.32 0.192 0.512 0.48 0.512h11.776c0.384 0 0.512-0.192 0.512-0.512v-3.2c0-0.352-0.128-0.512-0.512-0.512h-7.904v-4.736h6.016c0.32 0 0.512-0.192 0.512-0.544v-3.168c0-0.352-0.192-0.544-0.512-0.544h-6.016v-4.928h7.904c0.384 0 0.512-0.224 0.512-0.544z" fill="#f74c18"/>
  <g fill="#fff">
   <path d="m36.256-22.4c-2.976 0-4.608 1.6-4.608 4.608v5.536c0 0.608 0.288 0.992 0.864 1.184l7.68 2.496v3.232c0 0.864-0.448 1.28-1.28 1.28h-1.728c-0.8 0-1.28-0.416-1.28-1.28v-1.344c0-0.352-0.16-0.512-0.512-0.512h-3.232c-0.32 0-0.512 0.16-0.512 0.512v2.08c0 3.008 1.632 4.608 4.608 4.608h3.584c3.008 0 4.608-1.6 4.608-4.608v-6.016c0-0.608-0.288-0.992-0.832-1.184l-7.744-2.496v-2.72c0-0.832 0.48-1.28 1.28-1.28h1.76c0.864 0 1.28 0.448 1.28 1.28v1.344c0 0.32 0.192 0.512 0.512 0.512h3.232c0.352 0 0.512-0.192 0.512-0.512v-2.112c0-3.008-1.6-4.608-4.608-4.608z"/>
   <path d="m58.336-22.4c0.352 0 0.512 0.192 0.512 0.512v3.2c0 0.32-0.16 0.512-0.512 0.512h-3.712v17.664c0 0.352-0.16 0.512-0.512 0.512h-3.328c-0.32 0-0.512-0.16-0.512-0.512v-17.664h-3.712c-0.32 0-0.512-0.192-0.512-0.512v-3.2c0-0.32 0.192-0.512 0.512-0.512z"/>
   <path d="m70.624-22.4c-0.352 0-0.64 0.288-0.64 0.64v16.256c0 0.864-0.448 1.28-1.28 1.28h-1.664c-0.832 0-1.28-0.416-1.28-1.28v-16.256c0-0.352-0.288-0.64-0.64-0.64h-3.072c-0.352 0-0.64 0.288-0.64 0.64v17.152c0 3.008 1.6 4.608 4.608 4.608h3.584c3.008 0 4.608-1.6 4.608-4.608v-17.152c0-0.352-0.288-0.64-0.64-0.64z"/>
   <path d="m77.408-0.512c0 0.352 0.16 0.512 0.512 0.512h7.68c3.008 0 4.608-1.6 4.608-4.608v-13.152c0-3.008-1.6-4.64-4.608-4.64h-7.68c-0.352 0-0.512 0.192-0.512 0.512zm4.352-3.712v-13.952h2.944c0.832 0 1.28 0.448 1.28 1.312v11.36c0 0.864-0.448 1.28-1.28 1.28z"/>
   <path d="m93.92 0c-0.352 0-0.512-0.192-0.512-0.512v-21.376c0-0.32 0.16-0.512 0.512-0.512h3.328c0.32 0 0.512 0.192 0.512 0.512v21.376c0 0.32-0.192 0.512-0.512 0.512z"/>
   <path d="m100.96-4.608c0 3.008 1.6 4.608 4.608 4.608h3.584c3.008 0 4.608-1.6 4.608-4.608v-13.184c0-3.008-1.6-4.608-4.608-4.608h-3.584c-3.008 0-4.608 1.6-4.608 4.608zm5.44 0.48c-0.832 0-1.28-0.416-1.28-1.28v-11.584c0-0.832 0.448-1.28 1.28-1.28h2.048c0.832 0 1.28 0.448 1.28 1.28v11.584c0 0.864-0.448 1.28-1.28 1.28z"/>
  </g>
 </g>
</svg>
